<svg width="469" height="540" viewBox="0 0 469 540" fill="none" xmlns="http://www.w3.org/2000/svg">
<g id="Boat">
<g id="Sail">
<path id="Vector 2" d="M259 53.0371V8.98791C259 4.99154 255.167 2.11206 251.328 3.22547L174.976 25.3745C169.196 27.0513 169.209 35.245 174.994 36.9044L251.346 58.8045C255.18 59.9043 259 57.0259 259 53.0371Z" stroke="black"/>
<path id="Vector 3" d="M459.5 376.5C460.465 231.839 413.498 175.429 275.5 103C305.956 205.093 314.87 273.061 275.5 360V376.5H459.5Z" stroke="black"/>
<path id="Vector 4" d="M258 375V106L116 375H258Z" stroke="black"/>
</g>
<g id="Deck">
<path id="Vector 1" d="M465.832 437.244C447.684 489.309 432.569 514.903 373.275 538.985C372.447 539.321 371.541 539.5 370.647 539.5H19.2591C15.6949 539.5 12.6998 536.822 12.3027 533.28L1.37218 435.78C0.907065 431.631 4.15376 428 8.32859 428H254.5C258.366 428 261.5 424.866 261.5 421V7.25C261.5 3.79822 264.298 1 267.75 1C271.202 1 274 3.79822 274 7.25V421C274 424.866 277.134 428 281 428H459.245C464.035 428 467.409 432.721 465.832 437.244Z" fill="#F3F3F3" stroke="black"/>
<g id="Group 3">
<circle id="Ellipse 1" cx="322.5" cy="466.5" r="21" fill="#C4C4C4" stroke="black"/>
<circle id="Ellipse 2" cx="322.5" cy="466.5" r="13.5" fill="#32C8F8"/>
</g>
<g id="Group 2">
<circle id="Ellipse 1_2" cx="213.5" cy="466.5" r="21" fill="#C4C4C4" stroke="black"/>
<circle id="Ellipse 2_2" cx="213.5" cy="466.5" r="13.5" fill="#32C8F8"/>
</g>
<g id="Group 1">
<circle id="Ellipse 1_3" cx="104.5" cy="466.5" r="21" fill="#C4C4C4" stroke="black"/>
<circle id="Ellipse 2_3" cx="104.5" cy="466.5" r="13.5" fill="#32C8F8"/>
</g>
<path id="Aqua Marie" d="M385.099 452.932C385.099 452.977 385.085 453 385.058 453H381.906C381.861 453 381.838 452.973 381.838 452.918V452.733C381.838 452.67 381.861 452.638 381.906 452.638H382.843C382.916 452.638 382.945 452.597 382.932 452.515C382.891 452.369 382.733 451.895 382.46 451.093C382.187 450.286 382.036 449.853 382.009 449.794C381.972 449.703 381.924 449.657 381.865 449.657H378.563C378.522 449.666 378.488 449.694 378.461 449.739C378.397 449.862 378.288 450.152 378.133 450.607C377.978 451.059 377.882 451.366 377.846 451.53C377.773 451.895 377.736 452.114 377.736 452.187C377.736 452.487 377.773 452.638 377.846 452.638H378.885C378.939 452.638 378.967 452.67 378.967 452.733V452.932C378.967 452.977 378.944 453 378.898 453H376.137C376.091 453 376.068 452.977 376.068 452.932V452.706C376.068 452.66 376.087 452.638 376.123 452.638H376.711C376.811 452.638 376.946 452.424 377.114 451.995C377.287 451.567 377.798 450.329 378.646 448.283C379.188 446.993 379.846 445.43 380.621 443.594C380.671 443.452 380.721 443.373 380.771 443.354C380.899 443.318 381.063 443.261 381.264 443.184C381.296 443.17 381.332 443.195 381.373 443.259C381.414 443.318 381.396 443.386 381.318 443.464C381.182 443.605 381.113 443.742 381.113 443.874C381.109 444.011 381.141 444.182 381.209 444.387C381.455 445.07 381.899 446.351 382.542 448.229C383.185 450.102 383.631 451.314 383.882 451.865C384.123 452.38 384.297 452.638 384.401 452.638H385.044C385.08 452.638 385.099 452.67 385.099 452.733V452.932ZM381.715 449.035C381.528 448.493 381.327 447.898 381.113 447.251C380.899 446.604 380.678 445.929 380.45 445.228C380.437 445.168 380.418 445.132 380.396 445.118C380.377 445.136 380.354 445.173 380.327 445.228C379.757 446.622 379.347 447.611 379.097 448.194C378.851 448.778 378.728 449.078 378.728 449.097C378.728 449.124 378.748 449.138 378.789 449.138H381.681C381.726 449.138 381.738 449.104 381.715 449.035ZM392.639 455.598C392.639 455.661 392.609 455.7 392.55 455.714C392.135 455.832 391.6 455.999 390.943 456.213C390.556 456.372 390.383 456.452 390.424 456.452C390.351 456.452 390.314 456.407 390.314 456.315C390.314 456.279 390.333 456.176 390.369 456.008C390.451 455.639 390.497 455.172 390.506 454.606C390.515 454.16 390.52 453.317 390.52 452.077C390.52 451.927 390.465 451.909 390.355 452.022C390.132 452.241 389.866 452.437 389.556 452.61C388.945 452.943 388.437 453.109 388.031 453.109C387.516 453.109 387.104 453.007 386.794 452.802C386.657 452.706 386.477 452.515 386.254 452.228C385.835 451.69 385.625 450.897 385.625 449.849C385.625 448.928 385.898 448.16 386.445 447.545C386.992 446.925 387.664 446.615 388.462 446.615C389 446.615 389.542 446.775 390.089 447.094C390.567 447.372 390.813 447.511 390.827 447.511C391 447.511 391.132 447.244 391.224 446.711C391.246 446.583 391.301 446.52 391.388 446.52C391.474 446.52 391.518 446.583 391.518 446.711C391.518 446.734 391.499 448.003 391.463 450.519C391.431 453.034 391.415 454.34 391.415 454.436C391.415 455.229 391.495 455.616 391.654 455.598C391.686 455.593 391.925 455.529 392.372 455.406C392.468 455.379 392.541 455.365 392.591 455.365C392.623 455.365 392.639 455.388 392.639 455.434V455.598ZM390.547 451.318C390.547 449.564 390.51 448.402 390.438 447.832C390.424 447.768 390.387 447.688 390.328 447.593C390.214 447.511 389.968 447.415 389.59 447.306C389.139 447.174 388.735 447.107 388.38 447.107C387.988 447.107 387.685 447.178 387.471 447.319C387.357 447.397 387.206 447.559 387.02 447.805C386.655 448.297 386.473 448.903 386.473 449.623C386.473 450.083 386.571 450.537 386.767 450.983C386.922 451.334 387.072 451.574 387.218 451.701C387.614 452.034 388.063 452.2 388.564 452.2C389.02 452.2 389.433 452.132 389.802 451.995C390.116 451.872 390.333 451.731 390.451 451.571C390.515 451.507 390.547 451.423 390.547 451.318ZM399.365 452.72C399.365 452.761 399.345 452.793 399.304 452.815C399.19 452.861 399.046 452.923 398.873 453C398.827 453.027 398.757 453.073 398.661 453.137C398.634 453.169 398.593 453.185 398.538 453.185C398.547 453.185 398.486 453.15 398.354 453.082C398.112 452.932 397.916 452.592 397.766 452.063C397.743 451.986 397.697 451.977 397.629 452.036C397.479 452.159 397.057 452.424 396.364 452.829C396.082 452.998 395.61 453.082 394.949 453.082C394.576 453.082 394.272 452.92 394.04 452.597C393.826 452.291 393.719 451.936 393.719 451.53V448.83C393.719 447.682 393.625 447.107 393.438 447.107H392.625C392.561 447.107 392.529 447.085 392.529 447.039V446.813C392.529 446.768 392.548 446.745 392.584 446.745H393.425C393.448 446.745 393.559 446.738 393.76 446.725C393.965 446.706 394.088 446.697 394.129 446.697C394.462 446.661 394.61 446.643 394.573 446.643C394.651 446.643 394.689 446.704 394.689 446.827C394.689 446.836 394.683 447.534 394.669 448.919C394.66 450.3 394.655 451.049 394.655 451.168C394.655 451.596 394.751 451.893 394.942 452.057C395.106 452.202 395.384 452.275 395.776 452.275C396.168 452.275 396.786 452.089 397.629 451.715C397.674 451.715 397.697 451.676 397.697 451.599C397.697 451.599 397.697 450.427 397.697 448.085C397.697 447.451 397.604 447.135 397.417 447.135H396.604C396.549 447.135 396.521 447.112 396.521 447.066V446.841C396.521 446.795 396.54 446.772 396.576 446.772H397.458C397.736 446.772 397.973 446.757 398.169 446.725C398.433 446.688 398.57 446.67 398.579 446.67C398.643 446.67 398.675 446.736 398.675 446.868C398.675 446.886 398.67 447.604 398.661 449.021C398.652 450.434 398.647 451.177 398.647 451.25C398.647 451.893 398.857 452.346 399.276 452.61C399.336 452.642 399.365 452.679 399.365 452.72ZM405.873 452.549C405.873 452.572 405.864 452.601 405.846 452.638C405.586 452.897 405.399 453.064 405.285 453.137C405.244 453.169 405.203 453.185 405.162 453.185C404.893 453.185 404.627 453.059 404.362 452.809C404.116 452.576 403.934 452.298 403.815 451.975C403.788 451.893 403.752 451.883 403.706 451.947C403.656 452.025 403.528 452.157 403.323 452.344C403.118 452.531 402.975 452.647 402.893 452.692C402.446 452.952 402.04 453.082 401.676 453.082C401.329 453.082 401.072 453.023 400.903 452.904C400.644 452.713 400.514 452.428 400.514 452.05C400.514 451.603 400.655 451.182 400.938 450.785C401.138 450.503 401.45 450.266 401.874 450.074C402.334 449.865 402.95 449.687 403.72 449.541C403.761 449.532 403.784 449.482 403.788 449.391C403.82 448.693 403.82 448.222 403.788 447.976C403.761 447.734 403.656 447.554 403.474 447.436C403.291 447.317 403.034 447.258 402.701 447.258C402.232 447.258 401.904 447.315 401.717 447.429C401.607 447.506 401.562 447.586 401.58 447.668V447.859C401.58 448.06 401.528 448.238 401.423 448.393C401.259 448.648 401.067 448.775 400.849 448.775C400.689 448.775 400.609 448.671 400.609 448.461C400.609 448.283 400.712 448.062 400.917 447.798C401.122 447.534 401.348 447.326 401.594 447.176C402.036 446.907 402.642 446.772 403.412 446.772C403.923 446.772 404.292 446.88 404.52 447.094C404.688 447.249 404.772 447.575 404.772 448.071C404.772 448.431 404.75 448.974 404.704 449.698C404.663 450.423 404.643 450.833 404.643 450.929C404.643 451.38 404.759 451.744 404.991 452.022C405.16 452.218 405.422 452.367 405.777 452.467C405.841 452.494 405.873 452.521 405.873 452.549ZM403.761 449.992C403.761 449.906 403.724 449.862 403.651 449.862C403.296 449.862 402.899 449.96 402.462 450.156C401.724 450.489 401.354 450.938 401.354 451.503C401.354 451.849 401.439 452.086 401.607 452.214C401.749 452.328 401.972 452.385 402.277 452.385C402.688 452.385 403.093 452.207 403.494 451.852C403.604 451.756 403.665 451.64 403.679 451.503C403.733 450.961 403.761 450.457 403.761 449.992ZM421.281 452.932C421.281 452.977 421.258 453 421.213 453H418.089C418.025 453 417.993 452.977 417.993 452.932V452.706C417.993 452.66 418.016 452.638 418.062 452.638H418.8C418.914 452.638 418.971 452.581 418.971 452.467V448.967C418.971 447.167 418.952 445.964 418.916 445.357C418.907 445.225 418.884 445.159 418.848 445.159C418.82 445.159 418.786 445.202 418.745 445.289C418.649 445.485 417.727 447.579 415.977 451.571C415.712 452.164 415.503 452.667 415.348 453.082C415.302 453.16 415.263 453.198 415.231 453.198C415.168 453.198 415.127 453.164 415.108 453.096C414.479 451.811 413.83 450.478 413.16 449.097C412.786 448.285 412.269 447.212 411.608 445.877C411.567 445.799 411.531 445.761 411.499 445.761C411.463 445.761 411.442 445.809 411.438 445.904C411.314 447.723 411.253 449.051 411.253 449.89V451.435C411.253 452.237 411.362 452.638 411.581 452.638H412.388C412.438 452.638 412.463 452.656 412.463 452.692V452.932C412.463 452.977 412.447 453 412.415 453H409.94C409.886 453 409.858 452.982 409.858 452.945V452.733C409.858 452.67 409.881 452.638 409.927 452.638H410.638C410.761 452.638 410.822 452.535 410.822 452.33C410.822 451.619 410.854 450.316 410.918 448.42C410.941 448.064 410.961 447.707 410.979 447.347C411.016 446.64 411.034 446.032 411.034 445.521C411.034 444.856 410.804 444.41 410.344 444.182C410.243 444.132 410.038 444.093 409.729 444.065C409.692 444.065 409.674 444.047 409.674 444.011V443.758C409.674 443.721 409.692 443.703 409.729 443.703H411.533C411.615 443.703 411.672 443.735 411.704 443.799C412.128 444.637 412.586 445.549 413.078 446.533C413.798 448.083 414.577 449.716 415.416 451.435C415.493 451.549 415.553 451.567 415.594 451.489C416.104 450.327 416.651 449.094 417.234 447.791C417.799 446.488 418.378 445.168 418.971 443.833C419.016 443.746 419.087 443.703 419.183 443.703H420.933C420.978 443.703 421.001 443.721 421.001 443.758V443.997C421.001 444.043 420.987 444.065 420.96 444.065H420.283C420.146 444.065 420.064 444.22 420.037 444.53C420.005 444.822 419.989 445.966 419.989 447.962C419.989 449.429 420.005 450.48 420.037 451.113C420.083 452.13 420.217 452.638 420.44 452.638H421.227C421.263 452.638 421.281 452.66 421.281 452.706V452.932ZM427.748 452.549C427.748 452.572 427.739 452.601 427.721 452.638C427.461 452.897 427.274 453.064 427.16 453.137C427.119 453.169 427.078 453.185 427.037 453.185C426.768 453.185 426.502 453.059 426.237 452.809C425.991 452.576 425.809 452.298 425.69 451.975C425.663 451.893 425.627 451.883 425.581 451.947C425.531 452.025 425.403 452.157 425.198 452.344C424.993 452.531 424.85 452.647 424.768 452.692C424.321 452.952 423.915 453.082 423.551 453.082C423.204 453.082 422.947 453.023 422.778 452.904C422.519 452.713 422.389 452.428 422.389 452.05C422.389 451.603 422.53 451.182 422.812 450.785C423.013 450.503 423.325 450.266 423.749 450.074C424.209 449.865 424.825 449.687 425.595 449.541C425.636 449.532 425.659 449.482 425.663 449.391C425.695 448.693 425.695 448.222 425.663 447.976C425.636 447.734 425.531 447.554 425.349 447.436C425.166 447.317 424.909 447.258 424.576 447.258C424.107 447.258 423.779 447.315 423.592 447.429C423.482 447.506 423.437 447.586 423.455 447.668V447.859C423.455 448.06 423.403 448.238 423.298 448.393C423.134 448.648 422.942 448.775 422.724 448.775C422.564 448.775 422.484 448.671 422.484 448.461C422.484 448.283 422.587 448.062 422.792 447.798C422.997 447.534 423.223 447.326 423.469 447.176C423.911 446.907 424.517 446.772 425.287 446.772C425.798 446.772 426.167 446.88 426.395 447.094C426.563 447.249 426.647 447.575 426.647 448.071C426.647 448.431 426.625 448.974 426.579 449.698C426.538 450.423 426.518 450.833 426.518 450.929C426.518 451.38 426.634 451.744 426.866 452.022C427.035 452.218 427.297 452.367 427.652 452.467C427.716 452.494 427.748 452.521 427.748 452.549ZM425.636 449.992C425.636 449.906 425.599 449.862 425.526 449.862C425.171 449.862 424.774 449.96 424.337 450.156C423.599 450.489 423.229 450.938 423.229 451.503C423.229 451.849 423.314 452.086 423.482 452.214C423.624 452.328 423.847 452.385 424.152 452.385C424.562 452.385 424.968 452.207 425.369 451.852C425.479 451.756 425.54 451.64 425.554 451.503C425.608 450.961 425.636 450.457 425.636 449.992ZM432.923 447.36C432.873 447.657 432.802 447.941 432.711 448.215C432.688 448.288 432.656 448.324 432.615 448.324C432.565 448.324 432.524 448.301 432.492 448.256C432.374 448.087 432.269 447.971 432.178 447.907C432 447.766 431.772 447.695 431.494 447.695C430.979 447.695 430.592 447.807 430.332 448.03C430.286 448.071 430.264 448.133 430.264 448.215C430.264 448.242 430.261 448.769 430.257 449.794C430.252 450.819 430.25 451.362 430.25 451.421C430.25 452.232 430.325 452.638 430.476 452.638H431.815C431.875 452.638 431.904 452.67 431.904 452.733V452.932C431.904 452.977 431.884 453 431.843 453H428.343C428.279 453 428.247 452.977 428.247 452.932V452.733C428.247 452.67 428.274 452.638 428.329 452.638H429.156C429.243 452.638 429.286 452.594 429.286 452.508V448.017C429.286 447.392 429.211 447.08 429.061 447.08H428.22C428.174 447.08 428.151 447.055 428.151 447.005V446.786C428.151 446.736 428.174 446.711 428.22 446.711H429.156C429.484 446.711 429.694 446.697 429.785 446.67C430.036 446.597 430.173 446.561 430.195 446.561C430.259 446.561 430.291 446.622 430.291 446.745C430.291 446.777 430.286 446.914 430.277 447.155C430.268 447.392 430.264 447.524 430.264 447.552C430.264 447.684 430.291 447.723 430.346 447.668C430.555 447.486 430.795 447.285 431.063 447.066C431.396 446.82 431.722 446.697 432.041 446.697C432.41 446.697 432.695 446.852 432.896 447.162C432.937 447.226 432.946 447.292 432.923 447.36ZM435.548 444.277C435.548 444.519 435.438 444.733 435.22 444.92C435.033 445.079 434.857 445.159 434.693 445.159C434.393 445.159 434.242 445.011 434.242 444.715C434.242 444.537 434.317 444.357 434.468 444.175C434.65 443.956 434.873 443.847 435.138 443.847C435.411 443.847 435.548 443.99 435.548 444.277ZM436.676 452.932C436.676 452.977 436.648 453 436.594 453H433.347C433.301 453 433.278 452.973 433.278 452.918V452.706C433.278 452.642 433.297 452.61 433.333 452.61H434.324C434.411 452.61 434.454 452.562 434.454 452.467C434.454 452.439 434.456 451.888 434.461 450.812C434.465 449.732 434.468 449.135 434.468 449.021C434.468 448.311 434.461 447.884 434.447 447.743C434.397 447.319 434.274 447.107 434.078 447.107H433.401C433.328 447.107 433.292 447.085 433.292 447.039V446.8C433.292 446.741 433.315 446.711 433.36 446.711H433.764C434.188 446.711 434.595 446.693 434.987 446.656C435.279 446.629 435.413 446.615 435.391 446.615C435.495 446.615 435.548 446.686 435.548 446.827C435.548 446.841 435.53 447.52 435.493 448.864C435.461 450.204 435.445 450.906 435.445 450.97C435.445 452.063 435.557 452.61 435.78 452.61H436.607C436.653 452.61 436.676 452.633 436.676 452.679V452.932ZM442.637 452.077C442.637 452.086 442.632 452.1 442.623 452.118C442.482 452.259 442.363 452.364 442.268 452.433C442.099 452.551 441.871 452.674 441.584 452.802C441.124 453.007 440.625 453.109 440.087 453.109C439.285 453.109 438.647 452.872 438.173 452.398C437.594 451.82 437.305 451.116 437.305 450.286C437.305 449.694 437.337 449.258 437.4 448.98C437.56 448.301 437.84 447.766 438.241 447.374C438.706 446.914 439.28 446.684 439.964 446.684C440.292 446.684 440.561 446.736 440.771 446.841C440.935 446.918 441.197 447.087 441.557 447.347C441.985 447.652 442.274 447.969 442.425 448.297C442.461 448.379 442.479 448.45 442.479 448.509C442.479 448.559 442.438 448.6 442.356 448.632C442.183 448.7 441.675 448.812 440.832 448.967C439.87 449.145 439.23 449.233 438.911 449.233C438.884 449.233 438.774 449.236 438.583 449.24C438.396 449.245 438.287 449.247 438.255 449.247C438.2 449.247 438.173 449.354 438.173 449.568C438.173 450.512 438.517 451.282 439.205 451.879C439.574 452.198 440.18 452.357 441.023 452.357C441.456 452.357 441.812 452.31 442.09 452.214C442.286 452.15 442.42 452.082 442.493 452.009C442.507 452 442.527 451.988 442.555 451.975C442.577 451.975 442.596 451.991 442.609 452.022C442.618 452.036 442.628 452.054 442.637 452.077ZM441.358 448.42C441.358 448.383 441.336 448.324 441.29 448.242C441.094 447.896 440.848 447.609 440.552 447.381C440.256 447.153 439.914 447.039 439.526 447.039C439.239 447.039 438.964 447.215 438.699 447.565C438.604 447.698 438.501 447.9 438.392 448.174C438.273 448.47 438.214 448.698 438.214 448.857C438.214 448.93 438.241 448.967 438.296 448.967C438.25 448.967 438.642 448.935 439.472 448.871C440.26 448.807 440.853 448.7 441.249 448.55C441.322 448.518 441.358 448.475 441.358 448.42Z" fill="black"/>
<path id="Ladder" d="M32.4999 427.5C32.4999 427.5 32.5342 424.481 32 423.5C30.8154 421.324 28.7497 420.784 28.9999 423.5V430M49.9999 539V522.5M28.9999 539V522.5M53.4999 427.5C53.4999 427.5 53.5342 424.481 53 423.5C51.8154 421.324 49.7497 420.784 49.9999 423.5V430M28.9999 444H49.9999M28.9999 444V461M28.9999 444V430M49.9999 444V461M49.9999 444V430M28.9999 461H49.9999M28.9999 461V476.5M49.9999 461V476.5M28.9999 476.5H49.9999M28.9999 476.5V491M49.9999 476.5V491M28.9999 491H49.9999M28.9999 491V506M49.9999 491V506M28.9999 506H49.9999M28.9999 506V522.5M49.9999 506V522.5M28.9999 522.5H49.9999M28.9999 430H49.9999" stroke="#505050"/>
</g>
<path id="Railing" d="M338 416H295C293.343 416 292 417.343 292 419V428M338 416H383M338 416V428M383 416H422.38M383 416V428M422.38 416H457C458.657 416 460 417.343 460 419V428M422.38 416V428" stroke="black"/>
</g>
</svg>
