<svg width="2160" height="150" viewBox="0 0 2160 150" fill="none" xmlns="http://www.w3.org/2000/svg">
<g id="Frame 1" clip-path="url(#clip0)">
<path id="Line 1" d="M328.5 0.00152916C227.349 -0.171106 146.105 14.5203 -5.28064e-06 60.4035L-5.33278e-06 150L159.5 150L1080 150L1080 60.4036L1075.58 61.9334C1001.5 87.5995 995.603 90.9802 922 91.8825C794.342 93.4474 781.318 87.0357 699.5 77.2853C654.252 66.9951 527.467 38.5763 492 26.1742C408.851 -2.90119 400.01 4.89606 328.5 0.00152916Z" fill="url(#paint0_linear)"/>
<path id="Line 2" d="M1408.5 0.00152916C1307.35 -0.171106 1226.11 14.5203 1080 60.4035L1080 150L1239.5 150L2160 150L2160 60.4036L2155.58 61.9334C2081.5 87.5995 2075.6 90.9802 2002 91.8825C1874.34 93.4474 1861.32 87.0357 1779.5 77.2853C1734.25 66.9951 1607.47 38.5763 1572 26.1742C1488.85 -2.90119 1480.01 4.89606 1408.5 0.00152916Z" fill="url(#paint1_linear)"/>
</g>
<defs>
<linearGradient id="paint0_linear" x1="540" y1="4.72567e-05" x2="540" y2="150" gradientUnits="userSpaceOnUse">
<stop stop-color="#2595D3"/>
<stop offset="1" stop-color="#1236B6" stop-opacity="0.97"/>
</linearGradient>
<linearGradient id="paint1_linear" x1="1620" y1="4.72567e-05" x2="1620" y2="150" gradientUnits="userSpaceOnUse">
<stop stop-color="#2595D3"/>
<stop offset="1" stop-color="#1236B6" stop-opacity="0.97"/>
</linearGradient>
<clipPath id="clip0">
<rect width="2160" height="150" fill="white"/>
</clipPath>
</defs>
</svg>
