<svg width="1081" height="129" viewBox="0 0 1081 129" fill="none" xmlns="http://www.w3.org/2000/svg">
<g clip-path="url(#clip0)">
<path d="M0.0562185 14.9265C-0.0200123 13.7112 -0.0174585 12.3999 0.0562185 11V14.9265C1.01465 30.2056 14.427 30.2899 55.5198 0C48.3301 33.3333 66.3045 33.3333 109.443 0C102.253 33.3333 120.227 33.3333 163.366 0C156.176 33.3333 174.15 33.3333 217.289 0C210.099 33.3333 228.073 33.3333 271.212 0C264.022 33.3333 281.996 33.3333 325.135 0C317.945 33.3333 335.919 33.3333 379.058 0C371.868 33.3333 389.842 33.3333 432.981 0C425.791 33.3333 443.765 33.3333 486.904 0C479.714 33.3333 497.688 33.3333 540.826 0C533.637 33.3333 551.611 33.3333 594.75 0C587.56 33.3333 605.534 33.3333 648.672 0C641.483 33.3333 659.457 33.3333 702.595 0C695.406 33.3333 713.38 33.3333 756.518 0C749.329 33.3333 767.303 33.3333 810.441 0C803.252 33.3333 821.226 33.3333 864.364 0C857.175 33.3333 875.149 33.3333 918.287 0C911.098 33.3333 929.072 33.3333 972.21 0C965.021 33.3333 982.995 33.3333 1026.13 0C1018.94 33.3333 1036.92 33.3333 1080.06 0L1080.06 129H0.0562185V14.9265Z" fill="#C4C4C4"/>
<path d="M0.0562185 14.9265C-0.0200123 13.7112 -0.0174585 12.3999 0.0562185 11V14.9265C1.01465 30.2056 14.427 30.2899 55.5198 0C48.3301 33.3333 66.3045 33.3333 109.443 0C102.253 33.3333 120.227 33.3333 163.366 0C156.176 33.3333 174.15 33.3333 217.289 0C210.099 33.3333 228.073 33.3333 271.212 0C264.022 33.3333 281.996 33.3333 325.135 0C317.945 33.3333 335.919 33.3333 379.058 0C371.868 33.3333 389.842 33.3333 432.981 0C425.791 33.3333 443.765 33.3333 486.904 0C479.714 33.3333 497.688 33.3333 540.826 0C533.637 33.3333 551.611 33.3333 594.75 0C587.56 33.3333 605.534 33.3333 648.672 0C641.483 33.3333 659.457 33.3333 702.595 0C695.406 33.3333 713.38 33.3333 756.518 0C749.329 33.3333 767.303 33.3333 810.441 0C803.252 33.3333 821.226 33.3333 864.364 0C857.175 33.3333 875.149 33.3333 918.287 0C911.098 33.3333 929.072 33.3333 972.21 0C965.021 33.3333 982.995 33.3333 1026.13 0C1018.94 33.3333 1036.92 33.3333 1080.06 0L1080.06 129H0.0562185V14.9265Z" fill="url(#paint0_linear)"/>
</g>
<defs>
<linearGradient id="paint0_linear" x1="540.028" y1="0" x2="540.028" y2="129" gradientUnits="userSpaceOnUse">
<stop stop-color="#4C1AC4"/>
<stop offset="1" stop-color="#38AAE4"/>
</linearGradient>
<clipPath id="clip0">
<rect width="1080.06" height="129" fill="white"/>
</clipPath>
</defs>
</svg>
